<?xml version="1.0" encoding="UTF-8" standalone="no"?><!DOCTYPE svg PUBLIC "-//W3C//DTD SVG 1.1//EN" "http://www.w3.org/Graphics/SVG/1.1/DTD/svg11.dtd"><svg xmlns="http://www.w3.org/2000/svg" xmlns:xlink="http://www.w3.org/1999/xlink" version="1.1" width="1024" height="768" viewBox="0 0 1024 768" xml:space="preserve">
<desc>Created with Fabric.js 6.5.1</desc>
<defs>
</defs>

<g transform="matrix(1.2244 0 0 1.2244 566.3463 384)" id="glyphGroup_textPair_1777992379458_0.6247188711672147">
<g style="">
		<g transform="matrix(1 0 0 1 -184.464 0)">
<g style="">
		<g transform="matrix(1 0 0 1 0 0)">
<path style="stroke: none; stroke-width: 1; stroke-dasharray: none; stroke-linecap: butt; stroke-dashoffset: 0; stroke-linejoin: miter; stroke-miterlimit: 4; fill: rgb(160,171,172); fill-rule: nonzero; opacity: 1;" transform=" translate(-100, -95.9747)" d="M 95.32 121.1747 L 95.32 78.6947 L 78.616 78.6947 L 78.616 70.7747 L 121.384 70.7747 L 121.384 78.6947 L 104.68 78.6947 L 104.68 121.1747 Z" stroke-linecap="round"/>
</g>
</g>
</g>
		<g transform="matrix(1 0 0 1 -138.42 6.228)">
<g style="">
		<g transform="matrix(1 0 0 1 0 0)">
<path style="stroke: none; stroke-width: 1; stroke-dasharray: none; stroke-linecap: butt; stroke-dashoffset: 0; stroke-linejoin: miter; stroke-miterlimit: 4; fill: rgb(160,171,172); fill-rule: nonzero; opacity: 1;" transform=" translate(-99.856, -102.2027)" d="M 97.66 121.6787 Q 92.764 121.6787 89.02 119.8787 Q 85.276 118.0067 83.188 114.2627 Q 81.1 110.4467 81.1 104.6867 L 81.1 82.7267 L 90.1 82.7267 L 90.1 103.4627 Q 90.1 108.6467 92.404 111.2387 Q 94.78 113.7587 99.1 113.7587 Q 102.268 113.7587 104.572 112.4627 Q 106.948 111.1667 108.244 108.5747 Q 109.612 105.9827 109.612 102.1667 L 109.612 82.7267 L 118.612 82.7267 L 118.612 121.1747 L 110.044 121.1747 L 110.044 110.8067 L 111.556 113.9747 Q 109.612 117.7187 105.868 119.7347 Q 102.124 121.6787 97.66 121.6787 Z" stroke-linecap="round"/>
</g>
</g>
</g>
		<g transform="matrix(1 0 0 1 -96.732 5.76)">
<g style="">
		<g transform="matrix(1 0 0 1 0 0)">
<path style="stroke: none; stroke-width: 1; stroke-dasharray: none; stroke-linecap: butt; stroke-dashoffset: 0; stroke-linejoin: miter; stroke-miterlimit: 4; fill: rgb(160,171,172); fill-rule: nonzero; opacity: 1;" transform=" translate(-101.908, -101.7347)" d="M 90.784 121.1747 L 90.784 82.7267 L 99.352 82.7267 L 99.352 93.3107 L 98.344 90.2147 Q 100.072 86.3267 103.744 84.3107 Q 107.488 82.2947 113.032 82.2947 L 113.032 90.8627 Q 112.456 90.7187 111.952 90.7187 Q 111.448 90.6467 110.944 90.6467 Q 105.832 90.6467 102.808 93.6707 Q 99.784 96.6227 99.784 102.5267 L 99.784 121.1747 Z" stroke-linecap="round"/>
</g>
</g>
</g>
		<g transform="matrix(1 0 0 1 -58.68 5.76)">
<g style="">
		<g transform="matrix(1 0 0 1 0 0)">
<path style="stroke: none; stroke-width: 1; stroke-dasharray: none; stroke-linecap: butt; stroke-dashoffset: 0; stroke-linejoin: miter; stroke-miterlimit: 4; fill: rgb(160,171,172); fill-rule: nonzero; opacity: 1;" transform=" translate(-100.18, -101.7347)" d="M 81.244 121.1747 L 81.244 82.7267 L 89.812 82.7267 L 89.812 93.0947 L 88.3 89.9267 Q 90.316 86.2547 94.132 84.3107 Q 98.02 82.2947 103.06 82.2947 Q 107.668 82.2947 111.268 84.0947 Q 114.94 85.8947 117.028 89.6387 Q 119.116 93.3107 119.116 99.1427 L 119.116 121.1747 L 110.116 121.1747 L 110.116 100.2947 Q 110.116 95.1827 107.668 92.6627 Q 105.292 90.1427 100.972 90.1427 Q 97.804 90.1427 95.356 91.4387 Q 92.908 92.7347 91.54 95.3267 Q 90.244 97.8467 90.244 101.7347 L 90.244 121.1747 Z" stroke-linecap="round"/>
</g>
</g>
</g>
		<g transform="matrix(1 0 0 1 -14.076 -0.36)">
<g style="">
		<g transform="matrix(1 0 0 1 0 0)">
<path style="stroke: none; stroke-width: 1; stroke-dasharray: none; stroke-linecap: butt; stroke-dashoffset: 0; stroke-linejoin: miter; stroke-miterlimit: 4; fill: rgb(250,124,73); fill-rule: nonzero; opacity: 1;" transform=" translate(-99.172, -95.6147)" d="M 81.568 121.1747 L 81.568 114.9107 L 101.584 95.9027 Q 104.104 93.5267 105.328 91.7267 Q 106.552 89.9267 106.912 88.4147 Q 107.344 86.8307 107.344 85.4627 Q 107.344 82.0067 104.968 80.1347 Q 102.592 78.1907 97.984 78.1907 Q 94.312 78.1907 91.288 79.4867 Q 88.336 80.7827 86.176 83.4467 L 79.624 78.4067 Q 82.576 74.4467 87.544 72.2867 Q 92.584 70.0547 98.776 70.0547 Q 104.248 70.0547 108.28 71.8547 Q 112.384 73.5827 114.544 76.8227 Q 116.776 80.0627 116.776 84.5267 Q 116.776 86.9747 116.128 89.4227 Q 115.48 91.7987 113.68 94.4627 Q 111.88 97.1267 108.424 100.4387 L 91.216 116.7827 L 89.272 113.2547 L 118.72 113.2547 L 118.72 121.1747 Z" stroke-linecap="round"/>
</g>
</g>
</g>
		<g transform="matrix(1 0 0 1 34.632 0)">
<g style="">
		<g transform="matrix(1 0 0 1 0 0)">
<path style="stroke: none; stroke-width: 1; stroke-dasharray: none; stroke-linecap: butt; stroke-dashoffset: 0; stroke-linejoin: miter; stroke-miterlimit: 4; fill: rgb(160,171,172); fill-rule: nonzero; opacity: 1;" transform=" translate(-99.136, -95.9747)" d="M 102.52 121.8947 Q 96.616 121.8947 91.648 120.0227 Q 86.752 118.0787 83.08 114.6227 Q 79.408 111.0947 77.392 106.3427 Q 75.376 101.5907 75.376 95.9747 Q 75.376 90.3587 77.392 85.6067 Q 79.408 80.8547 83.08 77.3987 Q 86.824 73.8707 91.792 71.9987 Q 96.76 70.0547 102.664 70.0547 Q 109.072 70.0547 114.184 72.1427 Q 119.368 74.2307 122.896 78.2627 L 116.992 84.0227 Q 114.04 81.0707 110.584 79.7027 Q 107.2 78.2627 103.096 78.2627 Q 99.136 78.2627 95.752 79.5587 Q 92.368 80.8547 89.92 83.2307 Q 87.472 85.6067 86.104 88.8467 Q 84.808 92.0867 84.808 95.9747 Q 84.808 99.7907 86.104 103.0307 Q 87.472 106.2707 89.92 108.7187 Q 92.368 111.0947 95.68 112.3907 Q 98.992 113.6867 103.024 113.6867 Q 106.768 113.6867 110.224 112.5347 Q 113.752 111.3107 116.92 108.5027 L 122.248 115.4867 Q 118.288 118.6547 113.032 120.3107 Q 107.848 121.8947 102.52 121.8947 Z M 122.248 115.4867 L 113.392 114.2627 L 113.392 95.3987 L 122.248 95.3987 Z" stroke-linecap="round"/>
</g>
</g>
</g>
		<g transform="matrix(1 0 0 1 80.316 5.76)">
<g style="">
		<g transform="matrix(1 0 0 1 0 0)">
<path style="stroke: none; stroke-width: 1; stroke-dasharray: none; stroke-linecap: butt; stroke-dashoffset: 0; stroke-linejoin: miter; stroke-miterlimit: 4; fill: rgb(160,171,172); fill-rule: nonzero; opacity: 1;" transform=" translate(-101.908, -101.7347)" d="M 90.784 121.1747 L 90.784 82.7267 L 99.352 82.7267 L 99.352 93.3107 L 98.344 90.2147 Q 100.072 86.3267 103.744 84.3107 Q 107.488 82.2947 113.032 82.2947 L 113.032 90.8627 Q 112.456 90.7187 111.952 90.7187 Q 111.448 90.6467 110.944 90.6467 Q 105.832 90.6467 102.808 93.6707 Q 99.784 96.6227 99.784 102.5267 L 99.784 121.1747 Z" stroke-linecap="round"/>
</g>
</g>
</g>
		<g transform="matrix(1 0 0 1 116.748 6.012)">
<g style="">
		<g transform="matrix(1 0 0 1 0 0)">
<path style="stroke: none; stroke-width: 1; stroke-dasharray: none; stroke-linecap: butt; stroke-dashoffset: 0; stroke-linejoin: miter; stroke-miterlimit: 4; fill: rgb(160,171,172); fill-rule: nonzero; opacity: 1;" transform=" translate(-100, -101.9867)" d="M 99.964 121.6787 Q 94.06 121.6787 89.452 119.1587 Q 84.844 116.5667 82.18 112.1027 Q 79.516 107.6387 79.516 101.9507 Q 79.516 96.1907 82.18 91.7987 Q 84.844 87.3347 89.452 84.8147 Q 94.06 82.2947 99.964 82.2947 Q 105.94 82.2947 110.548 84.8147 Q 115.228 87.3347 117.82 91.7267 Q 120.484 96.1187 120.484 101.9507 Q 120.484 107.6387 117.82 112.1027 Q 115.228 116.5667 110.548 119.1587 Q 105.94 121.6787 99.964 121.6787 Z M 99.964 113.9747 Q 103.276 113.9747 105.868 112.5347 Q 108.46 111.0947 109.9 108.3587 Q 111.412 105.6227 111.412 101.9507 Q 111.412 98.2067 109.9 95.5427 Q 108.46 92.8067 105.868 91.3667 Q 103.276 89.9267 100.036 89.9267 Q 96.724 89.9267 94.132 91.3667 Q 91.612 92.8067 90.1 95.5427 Q 88.588 98.2067 88.588 101.9507 Q 88.588 105.6227 90.1 108.3587 Q 91.612 111.0947 94.132 112.5347 Q 96.724 113.9747 99.964 113.9747 Z" stroke-linecap="round"/>
</g>
</g>
</g>
		<g transform="matrix(1 0 0 1 173.052 5.976)">
<g style="">
		<g transform="matrix(1 0 0 1 0 0)">
<path style="stroke: none; stroke-width: 1; stroke-dasharray: none; stroke-linecap: butt; stroke-dashoffset: 0; stroke-linejoin: miter; stroke-miterlimit: 4; fill: rgb(160,171,172); fill-rule: nonzero; opacity: 1;" transform=" translate(-100, -101.9507)" d="M 81.316 121.1747 L 67.204 82.7267 L 75.7 82.7267 L 87.796 116.6387 L 83.764 116.6387 L 96.436 82.7267 L 103.996 82.7267 L 116.308 116.6387 L 112.348 116.6387 L 124.804 82.7267 L 132.796 82.7267 L 118.612 121.1747 L 109.972 121.1747 L 98.74 91.1507 L 101.404 91.1507 L 89.956 121.1747 Z" stroke-linecap="round"/>
</g>
</g>
</g>
</g>
</g>
<g transform="matrix(1.2244 0 0 1.2244 566.3463 384)" style="" id="logo-title">
		<text xml:space="preserve" font-family="Montserrat-SemiBold, sans-serif" font-size="72" font-style="normal" font-weight="600" style="stroke: none; stroke-width: 1; stroke-dasharray: none; stroke-linecap: butt; stroke-dashoffset: 0; stroke-linejoin: miter; stroke-miterlimit: 4; fill: rgb(255,255,255); fill-opacity: 0; fill-rule: nonzero; opacity: 1; white-space: pre;"><tspan x="-204.408" y="22.6181">Turn2Grow</tspan></text>
</g>
<g transform="matrix(1 0 0 1 602.5533 426.3486)" id="glyphGroup_textPair_1778004428100_0.5364043280106925">
<g style="">
</g>
</g>
<g transform="matrix(1 0 0 1 602.5533 426.3486)" style="" id="logo-slogan">
		<text xml:space="preserve" font-family="Brandmark-Startup, sans-serif" font-size="48" font-style="normal" font-weight="600" style="stroke: none; stroke-width: 1; stroke-dasharray: none; stroke-linecap: butt; stroke-dashoffset: 0; stroke-linejoin: miter; stroke-miterlimit: 4; fill: rgb(255,255,255); fill-opacity: 0; fill-rule: nonzero; opacity: 1; white-space: pre;"/>
</g>
<g transform="matrix(1.0138 0 0 1.0138 249.3475 384)" id="vectorized-icon-ai-d462061b-1c0b-6344-2dc6-f04e8c260e2a">
<g style="">
		<g transform="matrix(0.0976 0 0 0.0976 -0.0076 -0.0056)">
<path style="stroke: none; stroke-width: 1; stroke-dasharray: none; stroke-linecap: butt; stroke-dashoffset: 0; stroke-linejoin: miter; stroke-miterlimit: 4; fill: rgb(251,123,74); fill-rule: nonzero; opacity: 1;" transform=" translate(-1026.5434, -1033.8652)" d="M 1439.69 701.304 C 1478.29 698.263 1474.61 717.209 1473.53 748.007 L 1472.36 786.285 L 1468.69 897.5 L 1466.52 981.242 C 1466.25 994.489 1466.54 1010.25 1465.06 1023.47 C 1464.83 1025.57 1462.74 1026.77 1461.06 1027.87 C 1448.69 1029.84 1396.98 963.383 1381.4 956.508 C 1377.99 955.002 1370.53 961.779 1368.99 963.318 C 1336.85 995.526 1304.99 1028 1273.25 1060.59 L 1160.59 1174.71 C 1107.57 1228.87 1056.41 1290.05 989.433 1327.02 C 946.845 1350.52 897.279 1365.67 848.464 1366.11 C 798.727 1366.55 748.932 1366.18 699.179 1366.32 L 628.489 1366.59 C 616.955 1366.61 592.26 1367.49 582.641 1364.83 C 578.254 1360.27 579.077 1347.12 579.039 1340.56 C 578.948 1324.68 579.014 1308.77 579.024 1292.89 L 579.014 1185.75 L 579.011 846.624 C 578.994 823.689 577.06 804.691 595.255 787.115 C 616.983 766.125 647.364 769.408 674.846 769.334 L 743.75 769.381 C 841.894 769.116 912.55 764.271 999.183 823.534 C 1014.87 834.263 1060.21 872.254 1063.2 888.565 C 1061.57 892.257 1059.32 895.476 1056.56 898.428 C 1026.85 930.213 995.744 960.725 965.099 991.612 C 958.364 998.401 950.029 1007.53 942.026 1012.47 C 937.552 1011.67 921.175 987.683 916.362 982.816 C 880.056 946.11 836.932 939.417 787.431 941.967 C 778.646 942.419 764.543 940.32 755.917 943.671 C 752.783 949.949 754.092 1029.32 754.108 1041.51 L 753.86 1185.75 C 753.878 1190.05 754.252 1190.55 756.761 1193.06 C 763.545 1195.09 825.97 1194.12 836.153 1193.29 C 843.749 1192.72 851.28 1191.47 858.653 1189.56 C 878.894 1184.25 897.746 1174.62 913.911 1161.33 C 918.79 1157.35 923.353 1152.75 927.847 1148.33 C 977.169 1100.78 1023.56 1050.41 1071.33 1001.35 C 1118.1 953.332 1166.4 906.059 1211.8 856.667 C 1222.52 845.007 1238.76 832.53 1246.72 819.097 C 1232.71 799.164 1184.55 764.416 1170.96 741.484 C 1169.58 739.16 1170.63 737.727 1171.62 735.983 C 1174.14 734.303 1176.4 733.104 1179.5 732.697 C 1265.46 721.396 1354.12 714.554 1439.69 701.304 Z" stroke-linecap="round"/>
</g>
</g>
</g>
</svg>